<svg id="visual" viewBox="0 0 960 540" width="960" height="540" xmlns="http://www.w3.org/2000/svg" xmlns:xlink="http://www.w3.org/1999/xlink" version="1.1"><rect x="0" y="0" width="960" height="540" fill="#ffff"></rect><path d="M0 351L20 353.3C40 355.7 80 360.3 120 357.2C160 354 200 343 240 334.7C280 326.3 320 320.7 360 318.5C400 316.3 440 317.7 480 322.5C520 327.3 560 335.7 600 343.2C640 350.7 680 357.3 720 359C760 360.7 800 357.3 840 350.5C880 343.7 920 333.3 940 328.2L960 323L960 541L940 541C920 541 880 541 840 541C800 541 760 541 720 541C680 541 640 541 600 541C560 541 520 541 480 541C440 541 400 541 360 541C320 541 280 541 240 541C200 541 160 541 120 541C80 541 40 541 20 541L0 541Z" fill="#fa9969"></path><path d="M0 429L20 425.8C40 422.7 80 416.3 120 409.7C160 403 200 396 240 397.5C280 399 320 409 360 408.7C400 408.3 440 397.7 480 395.7C520 393.7 560 400.3 600 407.2C640 414 680 421 720 418C760 415 800 402 840 401.2C880 400.3 920 411.7 940 417.3L960 423L960 541L940 541C920 541 880 541 840 541C800 541 760 541 720 541C680 541 640 541 600 541C560 541 520 541 480 541C440 541 400 541 360 541C320 541 280 541 240 541C200 541 160 541 120 541C80 541 40 541 20 541L0 541Z" fill="#e76161"></path><path d="M0 449L20 450.2C40 451.3 80 453.7 120 454.8C160 456 200 456 240 456.8C280 457.7 320 459.3 360 465C400 470.7 440 480.3 480 485.7C520 491 560 492 600 492.3C640 492.7 680 492.3 720 487.3C760 482.3 800 472.7 840 468.3C880 464 920 465 940 465.5L960 466L960 541L940 541C920 541 880 541 840 541C800 541 760 541 720 541C680 541 640 541 600 541C560 541 520 541 480 541C440 541 400 541 360 541C320 541 280 541 240 541C200 541 160 541 120 541C80 541 40 541 20 541L0 541Z" fill="#c62368"></path></svg>